<svg version="1.2" xmlns="http://www.w3.org/2000/svg" viewBox="0 0 233 41" width="233" height="41">
	<title>cubecart-logo</title>
	<defs>
		<filter x="-50%" y="-50%" width="200%" height="200%" id="f1" ><feDropShadow dx="5" dy="6.123233995736766e-16" stdDeviation="2.0833333333333335" flood-color="#000000" flood-opacity=".1"/></filter>
	</defs>
	<style>
		tspan { white-space:pre } 
		.s0 { filter: url(#f1);fill: #ffffff } 
	</style>
	<path id="cubecart copy" fill-rule="evenodd" class="s0" d="m16.3 16.3c-4.5 0-8.1 3.6-8.1 8.7 0 4.9 3.6 8.6 8.3 8.6q5.5 0 7.3-4.7h7.2c-1.7 7.1-7.1 11.4-14.4 11.4-4.4 0-8-1.5-11-4.5-2.8-2.9-4.4-6.9-4.4-10.7 0-4.1 1.5-7.7 4.2-10.6 3.1-3.2 6.9-4.9 11.3-4.9 7 0 12.7 4.3 14.4 11.2h-7.2c-1.6-3-4.1-4.5-7.6-4.5zm35.7 20.1c-2 2.7-4.5 3.9-7.8 3.9-7.2 0-11.3-4.5-11.3-13v-16.8h6.8v13c0 6.9 1 10.3 6 10.3 4.9 0 6.3-3.7 6.3-10.7v-12.6h6.7v29.1h-6.7zm25.2-26.7c3.8 0 7.3 1.3 10 3.9 3.2 2.9 5 7 5 11.3 0 4.6-2 8.9-5.5 12-2.6 2.2-5.9 3.4-9.5 3.4-3.4 0-6.4-1-9.1-3.2v2.4h-6.6v-38.5h6.6v11.8c2.6-2.2 5.5-3.1 9.1-3.1zm-0.8 23.8c5.1 0 8.8-3.7 8.8-8.5 0-4.7-3.8-8.6-8.5-8.6-4.7 0-8.3 3.7-8.3 8.7 0 4.8 3.7 8.4 8 8.4zm32.4 0.4c3 0 5.5-1.3 6.9-3.7h7.3c-2.5 6.4-7.6 10.1-14.1 10.1-4.2 0-7.9-1.6-10.8-4.6-2.8-2.9-4.4-6.8-4.4-10.7 0-4.1 1.4-7.7 4.1-10.6 3-3.1 6.9-4.8 10.9-4.8 5 0 9.6 2.3 12.6 6.5 1.9 2.6 2.8 5.7 2.8 9.5 0 0.5-0.1 1-0.1 1.5h-23.3c0.5 4.2 3.5 6.8 8.1 6.8zm-0.1-18.1c-3.6 0-6.7 2.3-7.8 5.9h15.8c-1.1-3.9-3.9-5.9-8-5.9zm32.1 0.4c-4.6 0-8.1 3.6-8.1 8.7 0 5 3.5 8.6 8.3 8.6q5.5 0 7.3-4.7h7.2c-1.7 7.2-7.1 11.5-14.4 11.5-4.4 0-8.1-1.6-11-4.6-2.8-2.9-4.4-6.9-4.4-10.7 0-4.1 1.4-7.7 4.2-10.6 3-3.2 6.9-4.8 11.3-4.8 7 0 12.7 4.2 14.4 11.2h-7.2c-1.7-3.1-4.1-4.6-7.6-4.6zm40.8 19.7c-1.7 3-4.6 4.3-9.1 4.3-8.6 0-15.1-6.7-15.1-15.4 0-4 1.5-7.8 4.2-10.6 2.9-3.1 6.4-4.5 10.8-4.5 4.2 0 7.2 1.4 9.1 4.2v-3.5h6.6v29.1h-6.5zm-8.9-2.6c4.3 0 8.1-3.8 8.1-8.3 0-4.9-3.9-8.6-8.2-8.6-4.5 0-8.3 3.6-8.3 8.3 0 5 3.9 8.6 8.4 8.6zm24.7-8.7v14.9h-6.7v-29.1h6.3v3.4c2-2.6 4.3-3.5 7.5-3.5v6c-5.8 0.4-7.1 2.9-7.1 8.3zm13.6-8.2h-4.4v-6h4.4v-9.4h6.8v9.4h4.5v6h-4.5v23.1h-6.8z"/>
</svg>