{*
  SVG Icons converted from Font Awesome http://fontawesome.io/license/
  License: SIL OFL 1.1
  URL: http://scripts.sil.org/OFL
*}
<svg display="none" version="1.1" xmlns="http://www.w3.org/2000/svg">
    <defs>
        <symbol id="icon-angle-double-left" viewBox="0 0 1792 1792">
            <path d="M1011 1376q0 13-10 23l-50 50q-10 10-23 10t-23-10l-466-466q-10-10-10-23t10-23l466-466q10-10 23-10t23 10l50 50q10 10 10 23t-10 23l-393 393 393 393q10 10 10 23zm384 0q0 13-10 23l-50 50q-10 10-23 10t-23-10l-466-466q-10-10-10-23t10-23l466-466q10-10 23-10t23 10l50 50q10 10 10 23t-10 23l-393 393 393 393q10 10 10 23z"></path>
        </symbol>
        <symbol id="icon-angle-double-right" viewBox="0 0 1792 1792">
            <path d="M979 960q0 13-10 23l-466 466q-10 10-23 10t-23-10l-50-50q-10-10-10-23t10-23l393-393-393-393q-10-10-10-23t10-23l50-50q10-10 23-10t23 10l466 466q10 10 10 23zm384 0q0 13-10 23l-466 466q-10 10-23 10t-23-10l-50-50q-10-10-10-23t10-23l393-393-393-393q-10-10-10-23t10-23l50-50q10-10 23-10t23 10l466 466q10 10 10 23z"></path>
        </symbol>
        <symbol id="icon-angle-down" viewBox="0 0 1792 1792">
            <path d="M1395 736q0 13-10 23l-466 466q-10 10-23 10t-23-10l-466-466q-10-10-10-23t10-23l50-50q10-10 23-10t23 10l393 393 393-393q10-10 23-10t23 10l50 50q10 10 10 23z"></path>
        </symbol>
        <symbol id="icon-angle-up" viewBox="0 0 1792 1792">
            <path d="M1395 1184q0 13-10 23l-50 50q-10 10-23 10t-23-10l-393-393-393 393q-10 10-23 10t-23-10l-50-50q-10-10-10-23t10-23l466-466q10-10 23-10t23 10l466 466q10 10 10 23z"></path>
        </symbol>
        <symbol id="icon-bars" viewBox="0 0 1792 1792">
            <path d="M1664 1344v128q0 26-19 45t-45 19h-1408q-26 0-45-19t-19-45v-128q0-26 19-45t45-19h1408q26 0 45 19t19 45zm0-512v128q0 26-19 45t-45 19h-1408q-26 0-45-19t-19-45v-128q0-26 19-45t45-19h1408q26 0 45 19t19 45zm0-512v128q0 26-19 45t-45 19h-1408q-26 0-45-19t-19-45v-128q0-26 19-45t45-19h1408q26 0 45 19t19 45z"></path>
        </symbol>
        <symbol id="icon-basket" viewBox="0 0 1792 1792">
            <path d="M704 1536q0 52-38 90t-90 38-90-38-38-90 38-90 90-38 90 38 38 90zm896 0q0 52-38 90t-90 38-90-38-38-90 38-90 90-38 90 38 38 90zm128-1088v512q0 24-16.5 42.5t-40.5 21.5l-1044 122q13 60 13 70 0 16-24 64h920q26 0 45 19t19 45-19 45-45 19h-1024q-26 0-45-19t-19-45q0-11 8-31.5t16-36 21.5-40 15.5-29.5l-177-823h-204q-26 0-45-19t-19-45 19-45 45-19h256q16 0 28.5 6.5t19.5 15.5 13 24.5 8 26 5.5 29.5 4.5 26h1201q26 0 45 19t19 45z"></path>
        </symbol>
        <symbol id="icon-book" viewBox="0 0 1792 1792">
            <path d="M1703 478q40 57 18 129l-275 906q-19 64-76.5 107.5t-122.5 43.5h-923q-77 0-148.5-53.5t-99.5-131.5q-24-67-2-127 0-4 3-27t4-37q1-8-3-21.5t-3-19.5q2-11 8-21t16.5-23.5 16.5-23.5q23-38 45-91.5t30-91.5q3-10 .5-30t-.5-28q3-11 17-28t17-23q21-36 42-92t25-90q1-9-2.5-32t.5-28q4-13 22-30.5t22-22.5q19-26 42.5-84.5t27.5-96.5q1-8-3-25.5t-2-26.5q2-8 9-18t18-23 17-21q8-12 16.5-30.5t15-35 16-36 19.5-32 26.5-23.5 36-11.5 47.5 5.5l-1 3q38-9 51-9h761q74 0 114 56t18 130l-274 906q-36 119-71.5 153.5t-128.5 34.5h-869q-27 0-38 15-11 16-1 43 24 70 144 70h923q29 0 56-15.5t35-41.5l300-987q7-22 5-57 38 15 59 43zm-1064 2q-4 13 2 22.5t20 9.5h608q13 0 25.5-9.5t16.5-22.5l21-64q4-13-2-22.5t-20-9.5h-608q-13 0-25.5 9.5t-16.5 22.5zm-83 256q-4 13 2 22.5t20 9.5h608q13 0 25.5-9.5t16.5-22.5l21-64q4-13-2-22.5t-20-9.5h-608q-13 0-25.5 9.5t-16.5 22.5z"></path>
        </symbol>
        <symbol id="icon-caret-down" viewBox="0 0 1792 1792">
            <path d="M1408 704q0 26-19 45l-448 448q-19 19-45 19t-45-19l-448-448q-19-19-19-45t19-45 45-19h896q26 0 45 19t19 45z"></path>
        </symbol>
        <symbol id="icon-check" viewBox="0 0 1792 1792">
            <path d="M1671 566q0 40-28 68l-724 724-136 136q-28 28-68 28t-68-28l-136-136-362-362q-28-28-28-68t28-68l136-136q28-28 68-28t68 28l294 295 656-657q28-28 68-28t68 28l136 136q28 28 28 68z"></path>
        </symbol>
        <symbol id="icon-chevron-right" viewBox="0 0 1792 1792">
            <path d="M1363 877l-742 742q-19 19-45 19t-45-19l-166-166q-19-19-19-45t19-45l531-531-531-531q-19-19-19-45t19-45l166-166q19-19 45-19t45 19l742 742q19 19 19 45t-19 45z"></path>
        </symbol>
        <symbol id="icon-download" viewBox="0 0 1792 1792">
            <path d="M1344 1344q0-26-19-45t-45-19-45 19-19 45 19 45 45 19 45-19 19-45zm256 0q0-26-19-45t-45-19-45 19-19 45 19 45 45 19 45-19 19-45zm128-224v320q0 40-28 68t-68 28h-1472q-40 0-68-28t-28-68v-320q0-40 28-68t68-28h465l135 136q58 56 136 56t136-56l136-136h464q40 0 68 28t28 68zm-325-569q17 41-14 70l-448 448q-18 19-45 19t-45-19l-448-448q-31-29-14-70 17-39 59-39h256v-448q0-26 19-45t45-19h256q26 0 45 19t19 45v448h256q42 0 59 39z"></path>
        </symbol>
        <symbol id="icon-envelope" viewBox="0 0 1792 1792">
            <path d="M1792 710v794q0 66-47 113t-113 47h-1472q-66 0-113-47t-47-113v-794q44 49 101 87 362 246 497 345 57 42 92.5 65.5t94.5 48 110 24.5h2q51 0 110-24.5t94.5-48 92.5-65.5q170-123 498-345 57-39 100-87zm0-294q0 79-49 151t-122 123q-376 261-468 325-10 7-42.5 30.5t-54 38-52 32.5-57.5 27-50 9h-2q-23 0-50-9t-57.5-27-52-32.5-54-38-42.5-30.5q-91-64-262-182.5t-205-142.5q-62-42-117-115.5t-55-136.5q0-78 41.5-130t118.5-52h1472q65 0 112.5 47t47.5 113z"></path>
        </symbol>
        <symbol id="icon-home" viewBox="0 0 1792 1792">
            <path d="M1472 992v480q0 26-19 45t-45 19h-384v-384h-256v384h-384q-26 0-45-19t-19-45v-480q0-1 .5-3t.5-3l575-474 575 474q1 2 1 6zm223-69l-62 74q-8 9-21 11h-3q-13 0-21-7l-692-577-692 577q-12 8-24 7-13-2-21-11l-62-74q-8-10-7-23.5t11-21.5l719-599q32-26 76-26t76 26l244 204v-195q0-14 9-23t23-9h192q14 0 23 9t9 23v408l219 182q10 8 11 21.5t-7 23.5z"></path>
        </symbol>
        <symbol id="icon-info-circle" viewBox="0 0 1792 1792">
            <path d="M1152 1376v-160q0-14-9-23t-23-9h-96v-512q0-14-9-23t-23-9h-320q-14 0-23 9t-9 23v160q0 14 9 23t23 9h96v320h-96q-14 0-23 9t-9 23v160q0 14 9 23t23 9h448q14 0 23-9t9-23zm-128-896v-160q0-14-9-23t-23-9h-192q-14 0-23 9t-9 23v160q0 14 9 23t23 9h192q14 0 23-9t9-23zm640 416q0 209-103 385.5t-279.5 279.5-385.5 103-385.5-103-279.5-279.5-103-385.5 103-385.5 279.5-279.5 385.5-103 385.5 103 279.5 279.5 103 385.5z"></path>
        </symbol>
        <symbol id="icon-lock" viewBox="0 0 1792 1792">
            <path d="M640 768h512v-192q0-106-75-181t-181-75-181 75-75 181v192zm832 96v576q0 40-28 68t-68 28h-960q-40 0-68-28t-28-68v-576q0-40 28-68t68-28h32v-192q0-184 132-316t316-132 316 132 132 316v192h32q40 0 68 28t28 68z"></path>
        </symbol>
        <symbol id="icon-minus-circle" viewBox="0 0 1792 1792">
            <path d="M1344 960v-128q0-26-19-45t-45-19h-768q-26 0-45 19t-19 45v128q0 26 19 45t45 19h768q26 0 45-19t19-45zm320-64q0 209-103 385.5t-279.5 279.5-385.5 103-385.5-103-279.5-279.5-103-385.5 103-385.5 279.5-279.5 385.5-103 385.5 103 279.5 279.5 103 385.5z"></path>
        </symbol>
        <symbol id="icon-mobile" viewBox="0 0 1792 1792">
            <path d="M976 1408q0-33-23.5-56.5t-56.5-23.5-56.5 23.5-23.5 56.5 23.5 56.5 56.5 23.5 56.5-23.5 23.5-56.5zm208-160v-704q0-13-9.5-22.5t-22.5-9.5h-512q-13 0-22.5 9.5t-9.5 22.5v704q0 13 9.5 22.5t22.5 9.5h512q13 0 22.5-9.5t9.5-22.5zm-192-848q0-16-16-16h-160q-16 0-16 16t16 16h160q16 0 16-16zm288-16v1024q0 52-38 90t-90 38h-512q-52 0-90-38t-38-90v-1024q0-52 38-90t90-38h512q52 0 90 38t38 90z"></path>
        </symbol>
        <symbol id="icon-picture-o" viewBox="0 0 1792 1792">
            <path d="M576 576q0 80-56 136t-136 56-136-56-56-136 56-136 136-56 136 56 56 136zm1024 384v448h-1408v-192l320-320 160 160 512-512zm96-704h-1600q-13 0-22.5 9.5t-9.5 22.5v1216q0 13 9.5 22.5t22.5 9.5h1600q13 0 22.5-9.5t9.5-22.5v-1216q0-13-9.5-22.5t-22.5-9.5zm160 32v1216q0 66-47 113t-113 47h-1600q-66 0-113-47t-47-113v-1216q0-66 47-113t113-47h1600q66 0 113 47t47 113z"></path>
        </symbol>
        <symbol id="icon-phone" viewBox="0 0 1792 1792">
            <path d="M1600 1240q0 27-10 70.5t-21 68.5q-21 50-122 106-94 51-186 51-27 0-52.5-3.5t-57.5-12.5-47.5-14.5-55.5-20.5-49-18q-98-35-175-83-128-79-264.5-215.5t-215.5-264.5q-48-77-83-175-3-9-18-49t-20.5-55.5-14.5-47.5-12.5-57.5-3.5-52.5q0-92 51-186 56-101 106-122 25-11 68.5-21t70.5-10q14 0 21 3 18 6 53 76 11 19 30 54t35 63.5 31 53.5q3 4 17.5 25t21.5 35.5 7 28.5q0 20-28.5 50t-62 55-62 53-28.5 46q0 9 5 22.5t8.5 20.5 14 24 11.5 19q76 137 174 235t235 174q2 1 19 11.5t24 14 20.5 8.5 22.5 5q18 0 46-28.5t53-62 55-62 50-28.5q14 0 28.5 7t35.5 21.5 25 17.5q25 15 53.5 31t63.5 35 54 30q70 35 76 53 3 7 3 21z"></path>
        </symbol>
        <symbol id="icon-plus" viewBox="0 0 1792 1792">
            <path d="M1600 736v192q0 40-28 68t-68 28h-416v416q0 40-28 68t-68 28h-192q-40 0-68-28t-28-68v-416h-416q-40 0-68-28t-28-68v-192q0-40 28-68t68-28h416v-416q0-40 28-68t68-28h192q40 0 68 28t28 68v416h416q40 0 68 28t28 68z"></path>
        </symbol>
        <symbol id="icon-plus-circle" viewBox="0 0 1792 1792">
            <path d="M1344 960v-128q0-26-19-45t-45-19h-256v-256q0-26-19-45t-45-19h-128q-26 0-45 19t-19 45v256h-256q-26 0-45 19t-19 45v128q0 26 19 45t45 19h256v256q0 26 19 45t45 19h128q26 0 45-19t19-45v-256h256q26 0 45-19t19-45zm320-64q0 209-103 385.5t-279.5 279.5-385.5 103-385.5-103-279.5-279.5-103-385.5 103-385.5 279.5-279.5 385.5-103 385.5 103 279.5 279.5 103 385.5z"></path>
        </symbol>
        <symbol id="icon-print" viewBox="0 0 1792 1792">
            <path d="M448 1536h896v-256h-896v256zm0-640h896v-384h-160q-40 0-68-28t-28-68v-160h-640v640zm1152 64q0-26-19-45t-45-19-45 19-19 45 19 45 45 19 45-19 19-45zm128 0v416q0 13-9.5 22.5t-22.5 9.5h-224v160q0 40-28 68t-68 28h-960q-40 0-68-28t-28-68v-160h-224q-13 0-22.5-9.5t-9.5-22.5v-416q0-79 56.5-135.5t135.5-56.5h64v-544q0-40 28-68t68-28h672q40 0 88 20t76 48l152 152q28 28 48 76t20 88v256h64q79 0 135.5 56.5t56.5 135.5z"></path>
        </symbol>
        <symbol id="icon-refresh" viewBox="0 0 1792 1792">
            <path d="M1639 1056q0 5-1 7-64 268-268 434.5t-478 166.5q-146 0-282.5-55t-243.5-157l-129 129q-19 19-45 19t-45-19-19-45v-448q0-26 19-45t45-19h448q26 0 45 19t19 45-19 45l-137 137q71 66 161 102t187 36q134 0 250-65t186-179q11-17 53-117 8-23 30-23h192q13 0 22.5 9.5t9.5 22.5zm25-800v448q0 26-19 45t-45 19h-448q-26 0-45-19t-19-45 19-45l138-138q-148-137-349-137-134 0-250 65t-186 179q-11 17-53 117-8 23-30 23h-199q-13 0-22.5-9.5t-9.5-22.5v-7q65-268 270-434.5t480-166.5q146 0 284 55.5t245 156.5l130-129q19-19 45-19t45 19 19 45z"></path>
        </symbol>
        <symbol id="icon-reply" viewBox="0 0 1792 1792">
            <path d="M1792 1120q0 166-127 451-3 7-10.5 24t-13.5 30-13 22q-12 17-28 17-15 0-23.5-10t-8.5-25q0-9 2.5-26.5t2.5-23.5q5-68 5-123 0-101-17.5-181t-48.5-138.5-80-101-105.5-69.5-133-42.5-154-21.5-175.5-6h-224v256q0 26-19 45t-45 19-45-19l-512-512q-19-19-19-45t19-45l512-512q19-19 45-19t45 19 19 45v256h224q713 0 875 403 53 134 53 333z"></path>
        </symbol>
        <symbol id="icon-search" viewBox="0 0 1792 1792">
            <path d="M1216 832q0-185-131.5-316.5t-316.5-131.5-316.5 131.5-131.5 316.5 131.5 316.5 316.5 131.5 316.5-131.5 131.5-316.5zm512 832q0 52-38 90t-90 38q-54 0-90-38l-343-342q-179 124-399 124-143 0-273.5-55.5t-225-150-150-225-55.5-273.5 55.5-273.5 150-225 225-150 273.5-55.5 273.5 55.5 225 150 150 225 55.5 273.5q0 220-124 399l343 343q37 37 37 90z"></path>
        </symbol>
        <symbol id="icon-sign-in" viewBox="0 0 1792 1792">
            <path d="M1312 896q0 26-19 45l-544 544q-19 19-45 19t-45-19-19-45v-288h-448q-26 0-45-19t-19-45v-384q0-26 19-45t45-19h448v-288q0-26 19-45t45-19 45 19l544 544q19 19 19 45zm352-352v704q0 119-84.5 203.5t-203.5 84.5h-320q-13 0-22.5-9.5t-9.5-22.5q0-4-1-20t-.5-26.5 3-23.5 10-19.5 20.5-6.5h320q66 0 113-47t47-113v-704q0-66-47-113t-113-47h-312l-11.5-1-11.5-3-8-5.5-7-9-2-13.5q0-4-1-20t-.5-26.5 3-23.5 10-19.5 20.5-6.5h320q119 0 203.5 84.5t84.5 203.5z"></path>
        </symbol>
        <symbol id="icon-sign-out" viewBox="0 0 1792 1792">
            <path d="M704 1440q0 4 1 20t.5 26.5-3 23.5-10 19.5-20.5 6.5h-320q-119 0-203.5-84.5t-84.5-203.5v-704q0-119 84.5-203.5t203.5-84.5h320q13 0 22.5 9.5t9.5 22.5q0 4 1 20t.5 26.5-3 23.5-10 19.5-20.5 6.5h-320q-66 0-113 47t-47 113v704q0 66 47 113t113 47h312l11.5 1 11.5 3 8 5.5 7 9 2 13.5zm928-544q0 26-19 45l-544 544q-19 19-45 19t-45-19-19-45v-288h-448q-26 0-45-19t-19-45v-384q0-26 19-45t45-19h448v-288q0-26 19-45t45-19 45 19l544 544q19 19 19 45z"></path>
        </symbol>
        <symbol id="icon-spinner" viewBox="0 0 44 44" stroke="#d8d8d8">
            <g fill="none" fill-rule="evenodd" stroke-width="2">
                <circle cx="22" cy="22" r="1">
                    <animate attributeName="r" begin="0s" dur="1.8s" values="1; 20" calcMode="spline" keyTimes="0; 1" keySplines="0.165, 0.84, 0.44, 1" repeatCount="indefinite"/>
                    <animate attributeName="stroke-opacity" begin="0s" dur="1.8s" values="1; 0" calcMode="spline" keyTimes="0; 1" keySplines="0.3, 0.61, 0.355, 1" repeatCount="indefinite"/>
                </circle>
                <circle cx="22" cy="22" r="1">
                    <animate attributeName="r" begin="-0.9s" dur="1.8s" values="1; 20" calcMode="spline" keyTimes="0; 1" keySplines="0.165, 0.84, 0.44, 1" repeatCount="indefinite"/>
                    <animate attributeName="stroke-opacity" begin="-0.9s" dur="1.8s" values="1; 0" calcMode="spline" keyTimes="0; 1" keySplines="0.3, 0.61, 0.355, 1" repeatCount="indefinite"/>
                </circle>
             </g>
         </symbol>
        <symbol id="icon-th-large" viewBox="0 0 1792 1792">
            <path d="M832 1024v384q0 52-38 90t-90 38h-512q-52 0-90-38t-38-90v-384q0-52 38-90t90-38h512q52 0 90 38t38 90zm0-768v384q0 52-38 90t-90 38h-512q-52 0-90-38t-38-90v-384q0-52 38-90t90-38h512q52 0 90 38t38 90zm896 768v384q0 52-38 90t-90 38h-512q-52 0-90-38t-38-90v-384q0-52 38-90t90-38h512q52 0 90 38t38 90zm0-768v384q0 52-38 90t-90 38h-512q-52 0-90-38t-38-90v-384q0-52 38-90t90-38h512q52 0 90 38t38 90z"></path>
        </symbol>
        <symbol id="icon-th-list" viewBox="0 0 1792 1792">
            <path d="M512 1248v192q0 40-28 68t-68 28h-320q-40 0-68-28t-28-68v-192q0-40 28-68t68-28h320q40 0 68 28t28 68zm0-512v192q0 40-28 68t-68 28h-320q-40 0-68-28t-28-68v-192q0-40 28-68t68-28h320q40 0 68 28t28 68zm1280 512v192q0 40-28 68t-68 28h-960q-40 0-68-28t-28-68v-192q0-40 28-68t68-28h960q40 0 68 28t28 68zm-1280-1024v192q0 40-28 68t-68 28h-320q-40 0-68-28t-28-68v-192q0-40 28-68t68-28h320q40 0 68 28t28 68zm1280 512v192q0 40-28 68t-68 28h-960q-40 0-68-28t-28-68v-192q0-40 28-68t68-28h960q40 0 68 28t28 68zm0-512v192q0 40-28 68t-68 28h-960q-40 0-68-28t-28-68v-192q0-40 28-68t68-28h960q40 0 68 28t28 68z"></path>
        </symbol>
        <symbol id="icon-times" viewBox="0 0 1792 1792">
            <path d="M1490 1322q0 40-28 68l-136 136q-28 28-68 28t-68-28l-294-294-294 294q-28 28-68 28t-68-28l-136-136q-28-28-28-68t28-68l294-294-294-294q-28-28-28-68t28-68l136-136q28-28 68-28t68 28l294 294 294-294q28-28 68-28t68 28l136 136q28 28 28 68t-28 68l-294 294 294 294q28 28 28 68z"></path>
        </symbol>
        <symbol id="icon-trash-o" viewBox="0 0 1792 1792">
            <path d="M704 736v576q0 14-9 23t-23 9h-64q-14 0-23-9t-9-23v-576q0-14 9-23t23-9h64q14 0 23 9t9 23zm256 0v576q0 14-9 23t-23 9h-64q-14 0-23-9t-9-23v-576q0-14 9-23t23-9h64q14 0 23 9t9 23zm256 0v576q0 14-9 23t-23 9h-64q-14 0-23-9t-9-23v-576q0-14 9-23t23-9h64q14 0 23 9t9 23zm128 724v-948h-896v948q0 22 7 40.5t14.5 27 10.5 8.5h832q3 0 10.5-8.5t14.5-27 7-40.5zm-672-1076h448l-48-117q-7-9-17-11h-317q-10 2-17 11zm928 32v64q0 14-9 23t-23 9h-96v948q0 83-47 143.5t-113 60.5h-832q-66 0-113-58.5t-47-141.5v-952h-96q-14 0-23-9t-9-23v-64q0-14 9-23t23-9h309l70-167q15-37 54-63t79-26h320q40 0 79 26t54 63l70 167h309q14 0 23 9t9 23z"></path>
        </symbol>
        <symbol id="icon-truck" viewBox="0 0 1792 1792">
            <path d="M640 1408q0-52-38-90t-90-38-90 38-38 90 38 90 90 38 90-38 38-90zm-384-512h384v-256h-158q-13 0-22 9l-195 195q-9 9-9 22v30zm1280 512q0-52-38-90t-90-38-90 38-38 90 38 90 90 38 90-38 38-90zm256-1088v1024q0 15-4 26.5t-13.5 18.5-16.5 11.5-23.5 6-22.5 2-25.5 0-22.5-.5q0 106-75 181t-181 75-181-75-75-181h-384q0 106-75 181t-181 75-181-75-75-181h-64q-3 0-22.5.5t-25.5 0-22.5-2-23.5-6-16.5-11.5-13.5-18.5-4-26.5q0-26 19-45t45-19v-320q0-8-.5-35t0-38 2.5-34.5 6.5-37 14-30.5 22.5-30l198-198q19-19 50.5-32t58.5-13h160v-192q0-26 19-45t45-19h1024q26 0 45 19t19 45z"></path>
        </symbol>
        <symbol id="icon-user" viewBox="0 0 1792 1792">
            <path d="M1600 1405q0 120-73 189.5t-194 69.5h-874q-121 0-194-69.5t-73-189.5q0-53 3.5-103.5t14-109 26.5-108.5 43-97.5 62-81 85.5-53.5 111.5-20q9 0 42 21.5t74.5 48 108 48 133.5 21.5 133.5-21.5 108-48 74.5-48 42-21.5q61 0 111.5 20t85.5 53.5 62 81 43 97.5 26.5 108.5 14 109 3.5 103.5zm-320-893q0 159-112.5 271.5t-271.5 112.5-271.5-112.5-112.5-271.5 112.5-271.5 271.5-112.5 271.5 112.5 112.5 271.5z"></path>
        </symbol>
        <symbol id="icon-volume-up" viewBox="0 0 1792 1792">
            <path d="M832 352v1088q0 26-19 45t-45 19-45-19l-333-333h-262q-26 0-45-19t-19-45v-384q0-26 19-45t45-19h262l333-333q19-19 45-19t45 19 19 45zm384 544q0 76-42.5 141.5t-112.5 93.5q-10 5-25 5-26 0-45-18.5t-19-45.5q0-21 12-35.5t29-25 34-23 29-35.5 12-57-12-57-29-35.5-34-23-29-25-12-35.5q0-27 19-45.5t45-18.5q15 0 25 5 70 27 112.5 93t42.5 142zm256 0q0 153-85 282.5t-225 188.5q-13 5-25 5-27 0-46-19t-19-45q0-39 39-59 56-29 76-44 74-54 115.5-135.5t41.5-173.5-41.5-173.5-115.5-135.5q-20-15-76-44-39-20-39-59 0-26 19-45t45-19q13 0 26 5 140 59 225 188.5t85 282.5zm256 0q0 230-127 422.5t-338 283.5q-13 5-26 5-26 0-45-19t-19-45q0-36 39-59 7-4 22.5-10.5t22.5-10.5q46-25 82-51 123-91 192-227t69-289-69-289-192-227q-36-26-82-51-7-4-22.5-10.5t-22.5-10.5q-39-23-39-59 0-26 19-45t45-19q13 0 26 5 211 91 338 283.5t127 422.5z"></path>
        </symbol>
        <symbol id="icon-facebook-square" viewBox="0 0 1792 1792">
            <path d="M1376 128q119 0 203.5 84.5t84.5 203.5v960q0 119-84.5 203.5t-203.5 84.5h-188v-595h199l30-232h-229v-148q0-56 23.5-84t91.5-28l122-1v-207q-63-9-178-9-136 0-217.5 80t-81.5 226v171h-200v232h200v595h-532q-119 0-203.5-84.5t-84.5-203.5v-960q0-119 84.5-203.5t203.5-84.5h960z"></path>
        </symbol>
        <symbol id="icon-flickr" viewBox="0 0 1792 1792">
            <path d="M1376 128q119 0 203.5 84.5t84.5 203.5v960q0 119-84.5 203.5t-203.5 84.5h-960q-119 0-203.5-84.5t-84.5-203.5v-960q0-119 84.5-203.5t203.5-84.5h960zm-550 768q0-88-62-150t-150-62-150 62-62 150 62 150 150 62 150-62 62-150zm564 0q0-88-62-150t-150-62-150 62-62 150 62 150 150 62 150-62 62-150z"></path>
        </symbol>
        <symbol id="icon-google-plus-square" viewBox="0 0 1792 1792">
            <path d="M1045 905q0-26-6-64h-362v132h217q-3 24-16.5 50t-37.5 53-66.5 44.5-96.5 17.5q-99 0-169-71t-70-171 70-171 169-71q92 0 153 59l104-101q-108-100-257-100-160 0-272 112.5t-112 271.5 112 271.5 272 112.5q165 0 266.5-105t101.5-270zm345 46h109v-110h-109v-110h-110v110h-110v110h110v110h110v-110zm274-535v960q0 119-84.5 203.5t-203.5 84.5h-960q-119 0-203.5-84.5t-84.5-203.5v-960q0-119 84.5-203.5t203.5-84.5h960q119 0 203.5 84.5t84.5 203.5z"></path>
        </symbol>
        <symbol id="icon-instagram" viewBox="0 0 1792 1792">
            <path d="M1490 1426v-648h-135q20 63 20 131 0 126-64 232.5t-174 168.5-240 62q-197 0-337-135.5t-140-327.5q0-68 20-131h-141v648q0 26 17.5 43.5t43.5 17.5h1069q25 0 43-17.5t18-43.5zm-284-533q0-124-90.5-211.5t-218.5-87.5q-127 0-217.5 87.5t-90.5 211.5 90.5 211.5 217.5 87.5q128 0 218.5-87.5t90.5-211.5zm284-360v-165q0-28-20-48.5t-49-20.5h-174q-29 0-49 20.5t-20 48.5v165q0 29 20 49t49 20h174q29 0 49-20t20-49zm174-208v1142q0 81-58 139t-139 58h-1142q-81 0-139-58t-58-139v-1142q0-81 58-139t139-58h1142q81 0 139 58t58 139z"></path>
        </symbol>
        <symbol id="icon-linkedin-square" viewBox="0 0 1792 1792">
            <path d="M365 1414h231v-694h-231v694zm246-908q-1-52-36-86t-93-34-94.5 34-36.5 86q0 51 35.5 85.5t92.5 34.5h1q59 0 95-34.5t36-85.5zm585 908h231v-398q0-154-73-233t-193-79q-136 0-209 117h2v-101h-231q3 66 0 694h231v-388q0-38 7-56 15-35 45-59.5t74-24.5q116 0 116 157v371zm468-998v960q0 119-84.5 203.5t-203.5 84.5h-960q-119 0-203.5-84.5t-84.5-203.5v-960q0-119 84.5-203.5t203.5-84.5h960q119 0 203.5 84.5t84.5 203.5z"></path>
        </symbol>
        <symbol id="icon-pinterest-square" viewBox="0 0 1792 1792">
            <path d="M1376 128q119 0 203.5 84.5t84.5 203.5v960q0 119-84.5 203.5t-203.5 84.5h-725q85-122 108-210 9-34 53-209 21 39 73.5 67t112.5 28q181 0 295.5-147.5t114.5-373.5q0-84-35-162.5t-96.5-139-152.5-97-197-36.5q-104 0-194.5 28.5t-153 76.5-107.5 109.5-66.5 128-21.5 132.5q0 102 39.5 180t116.5 110q13 5 23.5 0t14.5-19q10-44 15-61 6-23-11-42-50-62-50-150 0-150 103.5-256.5t270.5-106.5q149 0 232.5 81t83.5 210q0 168-67.5 286t-173.5 118q-60 0-97-43.5t-23-103.5q8-34 26.5-92.5t29.5-102 11-74.5q0-49-26.5-81.5t-75.5-32.5q-61 0-103.5 56.5t-42.5 139.5q0 72 24 121l-98 414q-24 100-7 254h-183q-119 0-203.5-84.5t-84.5-203.5v-960q0-119 84.5-203.5t203.5-84.5h960z"></path>
        </symbol>
        <symbol id="icon-twitter-square" viewBox="0 0 1792 1792">
            <path d="M1408 610q-56 25-121 34 68-40 93-117-65 38-134 51-61-66-153-66-87 0-148.5 61.5t-61.5 148.5q0 29 5 48-129-7-242-65t-192-155q-29 50-29 106 0 114 91 175-47-1-100-26v2q0 75 50 133.5t123 72.5q-29 8-51 8-13 0-39-4 21 63 74.5 104t121.5 42q-116 90-261 90-26 0-50-3 148 94 322 94 112 0 210-35.5t168-95 120.5-137 75-162 24.5-168.5q0-18-1-27 63-45 105-109zm256-194v960q0 119-84.5 203.5t-203.5 84.5h-960q-119 0-203.5-84.5t-84.5-203.5v-960q0-119 84.5-203.5t203.5-84.5h960q119 0 203.5 84.5t84.5 203.5z"></path>
        </symbol>
        <symbol id="icon-vimeo-square" viewBox="0 0 1792 1792">
            <path d="M1709 518q-10 236-332 651-333 431-562 431-142 0-240-263-44-160-132-482-72-262-157-262-18 0-127 76l-77-98q24-21 108-96.5t130-115.5q156-138 241-146 95-9 153 55.5t81 203.5q44 287 66 373 55 249 120 249 51 0 154-161 101-161 109-246 13-139-109-139-57 0-121 26 120-393 459-382 251 8 236 326z"></path>
        </symbol>
        <symbol id="icon-wordpress" viewBox="0 0 1792 1792">
            <path d="M127 896q0-163 67-313l367 1005q-196-95-315-281t-119-411zm1288-39q0 19-2.5 38.5t-10 49.5-11.5 44-17.5 59-17.5 58l-76 256-278-826q46-3 88-8 19-2 26-18.5t-2.5-31-28.5-13.5l-205 10q-75-1-202-10-12-1-20.5 5t-11.5 15-1.5 18.5 9 16.5 19.5 8l80 8 120 328-168 504-280-832q46-3 88-8 19-2 26-18.5t-2.5-31-28.5-13.5l-205 10q-7 0-23-.5t-26-.5q105-160 274.5-253.5t367.5-93.5q147 0 280.5 53t238.5 149h-10q-55 0-92 40.5t-37 95.5q0 12 2 24t4 21.5 8 23 9 21 12 22.5 12.5 21 14.5 24 14 23q63 107 63 212zm-506 106l237 647q1 6 5 11-126 44-255 44-112 0-217-32zm661-436q95 174 95 369 0 209-104 385.5t-279 278.5l235-678q59-169 59-276 0-42-6-79zm-674-527q182 0 348 71t286 191 191 286 71 348-71 348-191 286-286 191-348 71-348-71-286-191-191-286-71-348 71-348 191-286 286-191 348-71zm0 1751q173 0 331.5-68t273-182.5 182.5-273 68-331.5-68-331.5-182.5-273-273-182.5-331.5-68-331.5 68-273 182.5-182.5 273-68 331.5 68 331.5 182.5 273 273 182.5 331.5 68z"></path>
        </symbol>
        <symbol id="icon-youtube-square" viewBox="0 0 1792 1792">
            <path d="M1047 1303v-157q0-50-29-50-17 0-33 16v224q16 16 33 16 29 0 29-49zm184-122h66v-34q0-51-33-51t-33 51v34zm-571-266v70h-80v423h-74v-423h-78v-70h232zm201 126v367h-67v-40q-39 45-76 45-33 0-42-28-6-16-6-54v-290h66v270q0 24 1 26 1 15 15 15 20 0 42-31v-280h67zm252 111v146q0 52-7 73-12 42-53 42-35 0-68-41v36h-67v-493h67v161q32-40 68-40 41 0 53 42 7 21 7 74zm251 129v9q0 29-2 43-3 22-15 40-27 40-80 40-52 0-81-38-21-27-21-86v-129q0-59 20-86 29-38 80-38t78 38q21 28 21 86v76h-133v65q0 51 34 51 24 0 30-26 0-1 .5-7t.5-16.5v-21.5h68zm-451-824v156q0 51-32 51t-32-51v-156q0-52 32-52t32 52zm533 713q0-177-19-260-10-44-43-73.5t-76-34.5q-136-15-412-15-275 0-411 15-44 5-76.5 34.5t-42.5 73.5q-20 87-20 260 0 176 20 260 10 43 42.5 73t75.5 35q137 15 412 15t412-15q43-5 75.5-35t42.5-73q20-84 20-260zm-755-651l90-296h-75l-51 195-53-195h-78l24 69 23 69q35 103 46 158v201h74v-201zm289 81v-130q0-58-21-87-29-38-78-38-51 0-78 38-21 29-21 87v130q0 58 21 87 27 38 78 38 49 0 78-38 21-27 21-87zm181 120h67v-370h-67v283q-22 31-42 31-15 0-16-16-1-2-1-26v-272h-67v293q0 37 6 55 11 27 43 27 36 0 77-45v40zm503-304v960q0 119-84.5 203.5t-203.5 84.5h-960q-119 0-203.5-84.5t-84.5-203.5v-960q0-119 84.5-203.5t203.5-84.5h960q119 0 203.5 84.5t84.5 203.5z"></path>
        </symbol>
    </defs>
</svg>